{
    "asset" : {
        "generator" : "Khronos glTF Blender I/O v3.4.50",
        "version" : "2.0"
    },
    "extensionsUsed" : [
        "KHR_materials_specular",
        "KHR_materials_ior"
    ],
    "scene" : 0,
    "scenes" : [
        {
            "name" : "Scene",
            "nodes" : [
                0,
                1,
                2,
                3,
                4
            ]
        }
    ],
    "nodes" : [
        {
            "mesh" : 0,
            "name" : "Body",
            "rotation" : [
                0.70710688829422,
                0,
                0,
                0.7071066498756409
            ]
        },
        {
            "mesh" : 1,
            "name" : "Brow",
            "rotation" : [
                0.70710688829422,
                0,
                0,
                0.7071066498756409
            ]
        },
        {
            "mesh" : 2,
            "name" : "EyeStar",
            "rotation" : [
                0.70710688829422,
                0,
                0,
                0.7071066498756409
            ]
        },
        {
            "mesh" : 3,
            "name" : "Face",
            "rotation" : [
                0.70710688829422,
                0,
                0,
                0.7071066498756409
            ]
        },
        {
            "mesh" : 4,
            "name" : "Face_Eye",
            "rotation" : [
                0.70710688829422,
                0,
                0,
                0.7071066498756409
            ]
        }
    ],
    "materials" : [
        {
            "alphaMode" : "BLEND",
            "doubleSided" : true,
            "extensions" : {
                "KHR_materials_specular" : {
                    "specularColorFactor" : [
                        0,
                        0,
                        0
                    ]
                },
                "KHR_materials_ior" : {
                    "ior" : 1.4500000476837158
                }
            },
            "name" : "Avatar_Girl_Pole_Hutao_Mat_Hair",
            "pbrMetallicRoughness" : {
                "baseColorTexture" : {
                    "index" : 0
                },
                "metallicFactor" : 0,
                "roughnessFactor" : 0.5
            }
        },
        {
            "alphaMode" : "BLEND",
            "doubleSided" : true,
            "extensions" : {
                "KHR_materials_specular" : {
                    "specularColorFactor" : [
                        0,
                        0,
                        0
                    ]
                },
                "KHR_materials_ior" : {
                    "ior" : 1.4500000476837158
                }
            },
            "name" : "Avatar_Girl_Pole_Hutao_Mat_Body",
            "pbrMetallicRoughness" : {
                "baseColorTexture" : {
                    "index" : 1
                },
                "metallicFactor" : 0,
                "roughnessFactor" : 0.5
            }
        },
        {
            "alphaMode" : "BLEND",
            "doubleSided" : true,
            "extensions" : {
                "KHR_materials_specular" : {
                    "specularColorFactor" : [
                        0,
                        0,
                        0
                    ]
                },
                "KHR_materials_ior" : {
                    "ior" : 1.4500000476837158
                }
            },
            "name" : "Avatar_Girl_Pole_Hutao_Mat_Face",
            "pbrMetallicRoughness" : {
                "baseColorTexture" : {
                    "index" : 2
                },
                "metallicFactor" : 0,
                "roughnessFactor" : 0.5
            }
        }
    ],
    "meshes" : [
        {
            "name" : "Body",
            "primitives" : [
                {
                    "attributes" : {
                        "POSITION" : 0,
                        "TEXCOORD_0" : 1,
                        "NORMAL" : 2
                    },
                    "indices" : 3,
                    "material" : 0
                },
                {
                    "attributes" : {
                        "POSITION" : 4,
                        "TEXCOORD_0" : 5,
                        "NORMAL" : 6
                    },
                    "indices" : 7,
                    "material" : 1
                }
            ]
        },
        {
            "name" : "Brow",
            "primitives" : [
                {
                    "attributes" : {
                        "POSITION" : 8,
                        "TEXCOORD_0" : 9,
                        "NORMAL" : 10
                    },
                    "indices" : 11,
                    "material" : 2
                }
            ]
        },
        {
            "name" : "EyeStar",
            "primitives" : [
                {
                    "attributes" : {
                        "POSITION" : 12,
                        "TEXCOORD_0" : 13,
                        "NORMAL" : 14
                    },
                    "indices" : 15,
                    "material" : 2
                }
            ]
        },
        {
            "name" : "Face",
            "primitives" : [
                {
                    "attributes" : {
                        "POSITION" : 16,
                        "TEXCOORD_0" : 17,
                        "NORMAL" : 18
                    },
                    "indices" : 19,
                    "material" : 2
                }
            ]
        },
        {
            "name" : "Face_Eye",
            "primitives" : [
                {
                    "attributes" : {
                        "POSITION" : 20,
                        "TEXCOORD_0" : 21,
                        "NORMAL" : 22
                    },
                    "indices" : 23,
                    "material" : 2
                }
            ]
        }
    ],
    "textures" : [
        {
            "sampler" : 0,
            "source" : 0
        },
        {
            "sampler" : 0,
            "source" : 1
        },
        {
            "sampler" : 0,
            "source" : 2
        }
    ],
    "images" : [
        {
            "mimeType" : "image/png",
            "name" : "Avatar_Girl_Pole_Hutao_Tex_Hair_Diffuse",
            "uri" : "Avatar_Girl_Pole_Hutao_Tex_Hair_Diffuse.png"
        },
        {
            "mimeType" : "image/png",
            "name" : "Avatar_Girl_Pole_Hutao_Tex_Body_Diffuse",
            "uri" : "Avatar_Girl_Pole_Hutao_Tex_Body_Diffuse.png"
        },
        {
            "mimeType" : "image/png",
            "name" : "Avatar_Girl_Pole_Hutao_Tex_Face_Diffuse",
            "uri" : "Avatar_Girl_Pole_Hutao_Tex_Face_Diffuse.png"
        }
    ],
    "accessors" : [
        {
            "bufferView" : 0,
            "componentType" : 5126,
            "count" : 4179,
            "max" : [
                0.3151650130748749,
                0.16496700048446655,
                -0.5976560115814209
            ],
            "min" : [
                -0.3151650130748749,
                -0.28346800804138184,
                -1.5937680006027222
            ],
            "type" : "VEC3"
        },
        {
            "bufferView" : 1,
            "componentType" : 5126,
            "count" : 4179,
            "type" : "VEC2"
        },
        {
            "bufferView" : 2,
            "componentType" : 5126,
            "count" : 4179,
            "type" : "VEC3"
        },
        {
            "bufferView" : 3,
            "componentType" : 5123,
            "count" : 16509,
            "type" : "SCALAR"
        },
        {
            "bufferView" : 4,
            "componentType" : 5126,
            "count" : 10277,
            "max" : [
                0.4164870083332062,
                0.17824800312519073,
                0.0019729998894035816
            ],
            "min" : [
                -0.416485995054245,
                -0.2346539944410324,
                -1.4077670574188232
            ],
            "type" : "VEC3"
        },
        {
            "bufferView" : 5,
            "componentType" : 5126,
            "count" : 10277,
            "type" : "VEC2"
        },
        {
            "bufferView" : 6,
            "componentType" : 5126,
            "count" : 10277,
            "type" : "VEC3"
        },
        {
            "bufferView" : 7,
            "componentType" : 5123,
            "count" : 35574,
            "type" : "SCALAR"
        },
        {
            "bufferView" : 8,
            "componentType" : 5126,
            "count" : 48,
            "max" : [
                0.0732399970293045,
                0.11628399789333344,
                -1.4071710109710693
            ],
            "min" : [
                -0.07324200123548508,
                0.08671200275421143,
                -1.417857050895691
            ],
            "type" : "VEC3"
        },
        {
            "bufferView" : 9,
            "componentType" : 5126,
            "count" : 48,
            "type" : "VEC2"
        },
        {
            "bufferView" : 10,
            "componentType" : 5126,
            "count" : 48,
            "type" : "VEC3"
        },
        {
            "bufferView" : 11,
            "componentType" : 5123,
            "count" : 132,
            "type" : "SCALAR"
        },
        {
            "bufferView" : 12,
            "componentType" : 5126,
            "count" : 50,
            "max" : [
                0.05304599925875664,
                0.09525500237941742,
                -1.3690760135650635
            ],
            "min" : [
                -0.053047001361846924,
                0.09030099958181381,
                -1.3941129446029663
            ],
            "type" : "VEC3"
        },
        {
            "bufferView" : 13,
            "componentType" : 5126,
            "count" : 50,
            "type" : "VEC2"
        },
        {
            "bufferView" : 14,
            "componentType" : 5126,
            "count" : 50,
            "type" : "VEC3"
        },
        {
            "bufferView" : 15,
            "componentType" : 5123,
            "count" : 192,
            "type" : "SCALAR"
        },
        {
            "bufferView" : 16,
            "componentType" : 5126,
            "count" : 822,
            "max" : [
                0.08835499733686447,
                0.12732000648975372,
                -1.297579050064087
            ],
            "min" : [
                -0.08835600316524506,
                0.0010000000474974513,
                -1.5011910200119019
            ],
            "type" : "VEC3"
        },
        {
            "bufferView" : 17,
            "componentType" : 5126,
            "count" : 822,
            "type" : "VEC2"
        },
        {
            "bufferView" : 18,
            "componentType" : 5126,
            "count" : 822,
            "type" : "VEC3"
        },
        {
            "bufferView" : 19,
            "componentType" : 5123,
            "count" : 4014,
            "type" : "SCALAR"
        },
        {
            "bufferView" : 20,
            "componentType" : 5126,
            "count" : 1063,
            "max" : [
                0.08221899718046188,
                0.12177799642086029,
                -1.3297499418258667
            ],
            "min" : [
                -0.08222100138664246,
                0.05572900176048279,
                -1.4349110126495361
            ],
            "type" : "VEC3"
        },
        {
            "bufferView" : 21,
            "componentType" : 5126,
            "count" : 1063,
            "type" : "VEC2"
        },
        {
            "bufferView" : 22,
            "componentType" : 5126,
            "count" : 1063,
            "type" : "VEC3"
        },
        {
            "bufferView" : 23,
            "componentType" : 5123,
            "count" : 4608,
            "type" : "SCALAR"
        }
    ],
    "bufferViews" : [
        {
            "buffer" : 0,
            "byteLength" : 50148,
            "byteOffset" : 0,
            "target" : 34962
        },
        {
            "buffer" : 0,
            "byteLength" : 33432,
            "byteOffset" : 50148,
            "target" : 34962
        },
        {
            "buffer" : 0,
            "byteLength" : 50148,
            "byteOffset" : 83580,
            "target" : 34962
        },
        {
            "buffer" : 0,
            "byteLength" : 33018,
            "byteOffset" : 133728,
            "target" : 34963
        },
        {
            "buffer" : 0,
            "byteLength" : 123324,
            "byteOffset" : 166748,
            "target" : 34962
        },
        {
            "buffer" : 0,
            "byteLength" : 82216,
            "byteOffset" : 290072,
            "target" : 34962
        },
        {
            "buffer" : 0,
            "byteLength" : 123324,
            "byteOffset" : 372288,
            "target" : 34962
        },
        {
            "buffer" : 0,
            "byteLength" : 71148,
            "byteOffset" : 495612,
            "target" : 34963
        },
        {
            "buffer" : 0,
            "byteLength" : 576,
            "byteOffset" : 566760,
            "target" : 34962
        },
        {
            "buffer" : 0,
            "byteLength" : 384,
            "byteOffset" : 567336,
            "target" : 34962
        },
        {
            "buffer" : 0,
            "byteLength" : 576,
            "byteOffset" : 567720,
            "target" : 34962
        },
        {
            "buffer" : 0,
            "byteLength" : 264,
            "byteOffset" : 568296,
            "target" : 34963
        },
        {
            "buffer" : 0,
            "byteLength" : 600,
            "byteOffset" : 568560,
            "target" : 34962
        },
        {
            "buffer" : 0,
            "byteLength" : 400,
            "byteOffset" : 569160,
            "target" : 34962
        },
        {
            "buffer" : 0,
            "byteLength" : 600,
            "byteOffset" : 569560,
            "target" : 34962
        },
        {
            "buffer" : 0,
            "byteLength" : 384,
            "byteOffset" : 570160,
            "target" : 34963
        },
        {
            "buffer" : 0,
            "byteLength" : 9864,
            "byteOffset" : 570544,
            "target" : 34962
        },
        {
            "buffer" : 0,
            "byteLength" : 6576,
            "byteOffset" : 580408,
            "target" : 34962
        },
        {
            "buffer" : 0,
            "byteLength" : 9864,
            "byteOffset" : 586984,
            "target" : 34962
        },
        {
            "buffer" : 0,
            "byteLength" : 8028,
            "byteOffset" : 596848,
            "target" : 34963
        },
        {
            "buffer" : 0,
            "byteLength" : 12756,
            "byteOffset" : 604876,
            "target" : 34962
        },
        {
            "buffer" : 0,
            "byteLength" : 8504,
            "byteOffset" : 617632,
            "target" : 34962
        },
        {
            "buffer" : 0,
            "byteLength" : 12756,
            "byteOffset" : 626136,
            "target" : 34962
        },
        {
            "buffer" : 0,
            "byteLength" : 9216,
            "byteOffset" : 638892,
            "target" : 34963
        }
    ],
    "samplers" : [
        {
            "magFilter" : 9729,
            "minFilter" : 9987
        }
    ],
    "buffers" : [
        {
            "byteLength" : 648108,
            "uri" : "Hutao.bin"
        }
    ]
}
