{
	"asset":{
		"generator":"Khronos glTF Blender I/O v3.6.27",
		"version":"2.0"
	},
	"extensionsUsed":[
		"KHR_materials_transmission",
		"KHR_materials_specular",
		"KHR_materials_ior"
	],
	"scene":0,
	"scenes":[
		{
			"name":"Scene",
			"nodes":[
				0,
				1
			]
		}
	],
	"nodes":[
		{
			"mesh":0,
			"name":"Cube"
		},
		{
			"mesh":1,
			"name":"TR_1576_Daeungjeon_Hall_of_Jikjisa_Temple,_Gimcheon",
			"rotation":[
				0.7071068286895752,
				0,
				0,
				0.7071068286895752
			]
		}
	],
	"materials":[
		{
			"doubleSided":true,
			"name":"Material",
			"pbrMetallicRoughness":{
				"baseColorFactor":[
					0.800000011920929,
					0.800000011920929,
					0.800000011920929,
					1
				],
				"metallicFactor":0,
				"roughnessFactor":0.5
			}
		},
		{
			"alphaMode":"BLEND",
			"doubleSided":true,
			"extensions":{
				"KHR_materials_transmission":{
					"transmissionFactor":1
				},
				"KHR_materials_specular":{
					"specularColorFactor":[
						1,
						1,
						1
					]
				},
				"KHR_materials_ior":{
					"ior":1
				}
			},
			"name":"TR_1576_Daeungjeon_Hall_of_Jikjisa_Temple__Gimcheon:TR_1576_Dae",
			"pbrMetallicRoughness":{
				"baseColorTexture":{
					"index":0
				}
			}
		},
		{
			"alphaMode":"BLEND",
			"doubleSided":true,
			"extensions":{
				"KHR_materials_transmission":{
					"transmissionFactor":1
				},
				"KHR_materials_specular":{
					"specularColorFactor":[
						1,
						1,
						1
					]
				},
				"KHR_materials_ior":{
					"ior":1
				}
			},
			"name":"TR_1576_Daeungjeon_Hall_of_Jikjisa_Temple__Gimcheon:TR_1576",
			"pbrMetallicRoughness":{
				"baseColorTexture":{
					"index":1
				}
			}
		},
		{
			"alphaMode":"BLEND",
			"doubleSided":true,
			"extensions":{
				"KHR_materials_transmission":{
					"transmissionFactor":1
				},
				"KHR_materials_specular":{
					"specularColorFactor":[
						1,
						1,
						1
					]
				},
				"KHR_materials_ior":{
					"ior":1
				}
			},
			"name":"TR_1576_Daeungjeon_Hall_of_Jikjisa_Temple__Gimcheon:TR_1576.001",
			"pbrMetallicRoughness":{
				"baseColorTexture":{
					"index":2
				}
			}
		},
		{
			"alphaMode":"BLEND",
			"doubleSided":true,
			"extensions":{
				"KHR_materials_transmission":{
					"transmissionFactor":1
				},
				"KHR_materials_specular":{
					"specularColorFactor":[
						1,
						1,
						1
					]
				},
				"KHR_materials_ior":{
					"ior":1
				}
			},
			"name":"TR_1576_Daeungjeon_Hall_of_Jikjisa_Temple__Gimcheon:TR_1576.002",
			"pbrMetallicRoughness":{
				"baseColorTexture":{
					"index":3
				}
			}
		},
		{
			"alphaMode":"BLEND",
			"doubleSided":true,
			"extensions":{
				"KHR_materials_transmission":{
					"transmissionFactor":1
				},
				"KHR_materials_specular":{
					"specularColorFactor":[
						1,
						1,
						1
					]
				},
				"KHR_materials_ior":{
					"ior":1
				}
			},
			"name":"TR_1576_Daeungjeon_Hall_of_Jikjisa_Temple__Gimcheon:TR_1576.003",
			"pbrMetallicRoughness":{
				"baseColorTexture":{
					"index":4
				}
			}
		},
		{
			"alphaMode":"BLEND",
			"doubleSided":true,
			"extensions":{
				"KHR_materials_transmission":{
					"transmissionFactor":1
				},
				"KHR_materials_specular":{
					"specularColorFactor":[
						1,
						1,
						1
					]
				},
				"KHR_materials_ior":{
					"ior":1
				}
			},
			"name":"TR_1576_Daeungjeon_Hall_of_Jikjisa_Temple__Gimcheon:TR_1576.004",
			"pbrMetallicRoughness":{
				"baseColorTexture":{
					"index":5
				}
			}
		},
		{
			"alphaMode":"BLEND",
			"doubleSided":true,
			"extensions":{
				"KHR_materials_transmission":{
					"transmissionFactor":1
				},
				"KHR_materials_specular":{
					"specularColorFactor":[
						1,
						1,
						1
					]
				},
				"KHR_materials_ior":{
					"ior":1
				}
			},
			"name":"TR_1576_Daeungjeon_Hall_of_Jikjisa_Temple__Gimcheon:TR_1576.005",
			"pbrMetallicRoughness":{
				"baseColorTexture":{
					"index":6
				}
			}
		}
	],
	"meshes":[
		{
			"name":"Cube",
			"primitives":[
				{
					"attributes":{
						"POSITION":0,
						"NORMAL":1,
						"TEXCOORD_0":2
					},
					"indices":3,
					"material":0
				}
			]
		},
		{
			"name":"TR_1576_Daeungjeon_Hall_of_Jikjisa_Temple,_Gimcheon",
			"primitives":[
				{
					"attributes":{
						"POSITION":4,
						"NORMAL":5,
						"TEXCOORD_0":6
					},
					"indices":7,
					"material":1
				},
				{
					"attributes":{
						"POSITION":8,
						"NORMAL":9,
						"TEXCOORD_0":10
					},
					"indices":11,
					"material":2
				},
				{
					"attributes":{
						"POSITION":12,
						"NORMAL":13,
						"TEXCOORD_0":14
					},
					"indices":15,
					"material":3
				},
				{
					"attributes":{
						"POSITION":16,
						"NORMAL":17,
						"TEXCOORD_0":18
					},
					"indices":19,
					"material":4
				},
				{
					"attributes":{
						"POSITION":20,
						"NORMAL":21,
						"TEXCOORD_0":22
					},
					"indices":23,
					"material":5
				},
				{
					"attributes":{
						"POSITION":24,
						"NORMAL":25,
						"TEXCOORD_0":26
					},
					"indices":27,
					"material":6
				},
				{
					"attributes":{
						"POSITION":28,
						"NORMAL":29,
						"TEXCOORD_0":30
					},
					"indices":31,
					"material":7
				}
			]
		}
	],
	"textures":[
		{
			"sampler":0,
			"source":0
		},
		{
			"sampler":0,
			"source":1
		},
		{
			"sampler":0,
			"source":2
		},
		{
			"sampler":0,
			"source":3
		},
		{
			"sampler":0,
			"source":4
		},
		{
			"sampler":0,
			"source":5
		},
		{
			"sampler":0,
			"source":6
		}
	],
	"images":[
		{
			"mimeType":"image/vnd-ms.dds",
			"name":"TR_1576_Daeungjeon_Hall_of_Jikjisa_Temple,_Gimcheon_u1_v1",
			"uri":"TR_1576_Daeungjeon_Hall_of_Jikjisa_Temple_Gimcheon_u1_v1.DDS"
		},
		{
			"mimeType":"image/vnd-ms.dds",
			"name":"TR_1576_Daeungjeon_Hall_of_Jikjisa_Temple,_Gimcheon_u2_v1",
			"uri":"TR_1576_Daeungjeon_Hall_of_Jikjisa_Temple_Gimcheon_u2_v1.DDS"
		},
		{
			"mimeType":"image/vnd-ms.dds",
			"name":"TR_1576_Daeungjeon_Hall_of_Jikjisa_Temple,_Gimcheon_u3_v1",
			"uri":"TR_1576_Daeungjeon_Hall_of_Jikjisa_Temple_Gimcheon_u3_v1.DDS"
		},
		{
			"mimeType":"image/vnd-ms.dds",
			"name":"TR_1576_Daeungjeon_Hall_of_Jikjisa_Temple,_Gimcheon_u1_v2",
			"uri":"TR_1576_Daeungjeon_Hall_of_Jikjisa_Temple_Gimcheon_u1_v2.DDS"
		},
		{
			"mimeType":"image/vnd-ms.dds",
			"name":"TR_1576_Daeungjeon_Hall_of_Jikjisa_Temple,_Gimcheon_u2_v2",
			"uri":"TR_1576_Daeungjeon_Hall_of_Jikjisa_Temple_Gimcheon_u2_v2.DDS"
		},
		{
			"mimeType":"image/vnd-ms.dds",
			"name":"TR_1576_Daeungjeon_Hall_of_Jikjisa_Temple,_Gimcheon_u3_v2",
			"uri":"TR_1576_Daeungjeon_Hall_of_Jikjisa_Temple_Gimcheon_u3_v2.DDS"
		},
		{
			"mimeType":"image/vnd-ms.dds",
			"name":"TR_1576_Daeungjeon_Hall_of_Jikjisa_Temple,_Gimcheon_u1_v3",
			"uri":"TR_1576_Daeungjeon_Hall_of_Jikjisa_Temple_Gimcheon_u1_v3.DDS"
		}
	],
	"accessors":[
		{
			"bufferView":0,
			"componentType":5126,
			"count":24,
			"max":[
				1,
				1,
				1
			],
			"min":[
				-1,
				-1,
				-1
			],
			"type":"VEC3"
		},
		{
			"bufferView":1,
			"componentType":5126,
			"count":24,
			"type":"VEC3"
		},
		{
			"bufferView":2,
			"componentType":5126,
			"count":24,
			"type":"VEC2"
		},
		{
			"bufferView":3,
			"componentType":5123,
			"count":36,
			"type":"SCALAR"
		},
		{
			"bufferView":4,
			"componentType":5126,
			"count":21729401,
			"max":[
				14.046401977539062,
				12.634854316711426,
				15.247645378112793
			],
			"min":[
				-14.028157234191895,
				-12.789129257202148,
				0.44999998807907104
			],
			"type":"VEC3"
		},
		{
			"bufferView":5,
			"componentType":5126,
			"count":21729401,
			"type":"VEC3"
		},
		{
			"bufferView":6,
			"componentType":5126,
			"count":21729401,
			"type":"VEC2"
		},
		{
			"bufferView":7,
			"componentType":5125,
			"count":31646904,
			"type":"SCALAR"
		},
		{
			"bufferView":8,
			"componentType":5126,
			"count":24224574,
			"max":[
				14.046402931213379,
				12.634812355041504,
				15.352784156799316
			],
			"min":[
				-14.098196029663086,
				-12.750688552856445,
				0.44999998807907104
			],
			"type":"VEC3"
		},
		{
			"bufferView":9,
			"componentType":5126,
			"count":24224574,
			"type":"VEC3"
		},
		{
			"bufferView":10,
			"componentType":5126,
			"count":24224574,
			"type":"VEC2"
		},
		{
			"bufferView":11,
			"componentType":5125,
			"count":28130511,
			"type":"SCALAR"
		},
		{
			"bufferView":12,
			"componentType":5126,
			"count":28105219,
			"max":[
				14.014368057250977,
				12.645332336425781,
				15.34981632232666
			],
			"min":[
				-14.098345756530762,
				-12.76619815826416,
				0.44999998807907104
			],
			"type":"VEC3"
		},
		{
			"bufferView":13,
			"componentType":5126,
			"count":28105219,
			"type":"VEC3"
		},
		{
			"bufferView":14,
			"componentType":5126,
			"count":28105219,
			"type":"VEC2"
		},
		{
			"bufferView":15,
			"componentType":5125,
			"count":28566909,
			"type":"SCALAR"
		},
		{
			"bufferView":16,
			"componentType":5126,
			"count":29418605,
			"max":[
				14.046402931213379,
				12.449951171875,
				15.34544563293457
			],
			"min":[
				-14.09292984008789,
				-12.789129257202148,
				0.44999998807907104
			],
			"type":"VEC3"
		},
		{
			"bufferView":17,
			"componentType":5126,
			"count":29418605,
			"type":"VEC3"
		},
		{
			"bufferView":18,
			"componentType":5126,
			"count":29418605,
			"type":"VEC2"
		},
		{
			"bufferView":19,
			"componentType":5125,
			"count":29690325,
			"type":"SCALAR"
		},
		{
			"bufferView":20,
			"componentType":5126,
			"count":29133565,
			"max":[
				14.046402931213379,
				12.63083553314209,
				15.166291236877441
			],
			"min":[
				-14.098345756530762,
				-12.768117904663086,
				0.44999998807907104
			],
			"type":"VEC3"
		},
		{
			"bufferView":21,
			"componentType":5126,
			"count":29133565,
			"type":"VEC3"
		},
		{
			"bufferView":22,
			"componentType":5126,
			"count":29133565,
			"type":"VEC2"
		},
		{
			"bufferView":23,
			"componentType":5125,
			"count":29344098,
			"type":"SCALAR"
		},
		{
			"bufferView":24,
			"componentType":5126,
			"count":16500357,
			"max":[
				13.961118698120117,
				12.605860710144043,
				15.333300590515137
			],
			"min":[
				-14.098345756530762,
				-12.743322372436523,
				0.44999998807907104
			],
			"type":"VEC3"
		},
		{
			"bufferView":25,
			"componentType":5126,
			"count":16500357,
			"type":"VEC3"
		},
		{
			"bufferView":26,
			"componentType":5126,
			"count":16500357,
			"type":"VEC2"
		},
		{
			"bufferView":27,
			"componentType":5125,
			"count":16554510,
			"type":"SCALAR"
		},
		{
			"bufferView":28,
			"componentType":5126,
			"count":2419968,
			"max":[
				13.886333465576172,
				12.49750804901123,
				15.345406532287598
			],
			"min":[
				-14.065258026123047,
				-12.768117904663086,
				0.44999998807907104
			],
			"type":"VEC3"
		},
		{
			"bufferView":29,
			"componentType":5126,
			"count":2419968,
			"type":"VEC3"
		},
		{
			"bufferView":30,
			"componentType":5126,
			"count":2419968,
			"type":"VEC2"
		},
		{
			"bufferView":31,
			"componentType":5125,
			"count":2421999,
			"type":"SCALAR"
		}
	],
	"bufferViews":[
		{
			"buffer":0,
			"byteLength":288,
			"byteOffset":0,
			"target":34962
		},
		{
			"buffer":0,
			"byteLength":288,
			"byteOffset":288,
			"target":34962
		},
		{
			"buffer":0,
			"byteLength":192,
			"byteOffset":576,
			"target":34962
		},
		{
			"buffer":0,
			"byteLength":72,
			"byteOffset":768,
			"target":34963
		},
		{
			"buffer":0,
			"byteLength":260752812,
			"byteOffset":840,
			"target":34962
		},
		{
			"buffer":0,
			"byteLength":260752812,
			"byteOffset":260753652,
			"target":34962
		},
		{
			"buffer":0,
			"byteLength":173835208,
			"byteOffset":521506464,
			"target":34962
		},
		{
			"buffer":0,
			"byteLength":126587616,
			"byteOffset":695341672,
			"target":34963
		},
		{
			"buffer":0,
			"byteLength":290694888,
			"byteOffset":821929288,
			"target":34962
		},
		{
			"buffer":0,
			"byteLength":290694888,
			"byteOffset":1112624176,
			"target":34962
		},
		{
			"buffer":0,
			"byteLength":193796592,
			"byteOffset":1403319064,
			"target":34962
		},
		{
			"buffer":0,
			"byteLength":112522044,
			"byteOffset":1597115656,
			"target":34963
		},
		{
			"buffer":0,
			"byteLength":337262628,
			"byteOffset":1709637700,
			"target":34962
		},
		{
			"buffer":0,
			"byteLength":337262628,
			"byteOffset":2046900328,
			"target":34962
		},
		{
			"buffer":0,
			"byteLength":224841752,
			"byteOffset":2384162956,
			"target":34962
		},
		{
			"buffer":0,
			"byteLength":114267636,
			"byteOffset":2609004708,
			"target":34963
		},
		{
			"buffer":0,
			"byteLength":353023260,
			"byteOffset":2723272344,
			"target":34962
		},
		{
			"buffer":0,
			"byteLength":353023260,
			"byteOffset":3076295604,
			"target":34962
		},
		{
			"buffer":0,
			"byteLength":235348840,
			"byteOffset":3429318864,
			"target":34962
		},
		{
			"buffer":0,
			"byteLength":118761300,
			"byteOffset":3664667704,
			"target":34963
		},
		{
			"buffer":0,
			"byteLength":349602780,
			"byteOffset":3783429004,
			"target":34962
		},
		{
			"buffer":0,
			"byteLength":349602780,
			"byteOffset":4133031784,
			"target":34962
		},
		{
			"buffer":0,
			"byteLength":233068520,
			"byteOffset":4482634564,
			"target":34962
		},
		{
			"buffer":0,
			"byteLength":117376392,
			"byteOffset":4715703084,
			"target":34963
		},
		{
			"buffer":0,
			"byteLength":198004284,
			"byteOffset":4833079476,
			"target":34962
		},
		{
			"buffer":0,
			"byteLength":198004284,
			"byteOffset":5031083760,
			"target":34962
		},
		{
			"buffer":0,
			"byteLength":132002856,
			"byteOffset":5229088044,
			"target":34962
		},
		{
			"buffer":0,
			"byteLength":66218040,
			"byteOffset":5361090900,
			"target":34963
		},
		{
			"buffer":0,
			"byteLength":29039616,
			"byteOffset":5427308940,
			"target":34962
		},
		{
			"buffer":0,
			"byteLength":29039616,
			"byteOffset":5456348556,
			"target":34962
		},
		{
			"buffer":0,
			"byteLength":19359744,
			"byteOffset":5485388172,
			"target":34962
		},
		{
			"buffer":0,
			"byteLength":9687996,
			"byteOffset":5504747916,
			"target":34963
		}
	],
	"samplers":[
		{
			"magFilter":9729,
			"minFilter":9987
		}
	],
	"buffers":[
		{
			"byteLength":5514435912,
			"uri":"jikjisa_blender.bin"
		}
	]
}
